<svg xmlns="http://www.w3.org/2000/svg" viewBox="100 150 1100 700" width="1536" height="1024" shape-rendering="geometricPrecision">
  <g fill-rule="evenodd">
    <path d="M 1065 615 L 1061 615 L 1060 616 L 1058 616 L 1057 617 L 1056 617 L 1055 618 L 1055 619 L 1054 620 L 1053 619 L 1053 615 L 1046 615 L 1046 643 L 1053 643 L 1053 626 L 1054 625 L 1054 624 L 1056 622 L 1057 622 L 1058 621 L 1059 621 L 1060 620 L 1065 620 Z M 1012 616 L 1010 618 L 1010 620 L 1011 621 L 1014 621 L 1015 620 L 1016 620 L 1017 619 L 1024 619 L 1025 620 L 1027 620 L 1029 622 L 1029 626 L 1028 627 L 1027 626 L 1016 626 L 1015 627 L 1013 627 L 1011 629 L 1010 629 L 1008 631 L 1008 632 L 1007 633 L 1007 637 L 1008 638 L 1008 639 L 1012 643 L 1023 643 L 1024 642 L 1025 642 L 1026 641 L 1027 641 L 1029 639 L 1030 640 L 1030 643 L 1037 643 L 1037 625 L 1036 624 L 1036 621 L 1034 619 L 1034 618 L 1033 617 L 1032 617 L 1031 616 L 1030 616 L 1029 615 L 1014 615 L 1013 616 Z M 1013 635 L 1013 634 L 1014 633 L 1014 632 L 1016 630 L 1017 630 L 1018 629 L 1028 629 L 1030 631 L 1030 634 L 1029 635 L 1029 636 L 1027 638 L 1025 638 L 1024 639 L 1017 639 L 1016 638 L 1015 638 L 1014 637 L 1014 636 Z M 903 615 L 898 615 L 897 616 L 896 616 L 895 617 L 894 617 L 893 618 L 893 619 L 892 620 L 891 620 L 890 619 L 890 615 L 884 615 L 884 643 L 891 643 L 891 627 L 892 626 L 892 624 L 894 622 L 895 622 L 896 621 L 897 621 L 898 620 L 903 620 Z M 848 617 L 848 621 L 851 621 L 852 620 L 854 620 L 855 619 L 862 619 L 863 620 L 864 620 L 866 622 L 866 624 L 867 625 L 867 626 L 866 627 L 865 626 L 854 626 L 853 627 L 850 627 L 848 629 L 847 629 L 846 630 L 846 631 L 845 632 L 845 638 L 846 639 L 846 640 L 847 641 L 848 641 L 849 642 L 850 642 L 851 643 L 860 643 L 861 642 L 863 642 L 865 640 L 867 640 L 868 641 L 868 643 L 874 643 L 874 623 L 873 622 L 873 620 L 869 616 L 867 616 L 866 615 L 853 615 L 852 616 L 850 616 L 849 617 Z M 851 636 L 851 633 L 854 630 L 855 630 L 856 629 L 865 629 L 866 630 L 866 631 L 867 632 L 867 634 L 866 635 L 866 636 L 864 638 L 862 638 L 861 639 L 854 639 Z M 637 615 L 631 615 L 630 616 L 629 616 L 628 617 L 627 617 L 627 618 L 625 620 L 624 619 L 624 615 L 618 615 L 618 643 L 624 643 L 625 642 L 625 632 L 624 631 L 625 630 L 625 625 L 629 621 L 631 621 L 632 620 L 637 620 Z M 579 621 L 579 622 L 578 623 L 578 624 L 577 625 L 577 634 L 578 635 L 578 636 L 580 638 L 580 639 L 581 640 L 582 640 L 583 641 L 584 641 L 585 642 L 586 642 L 587 643 L 599 643 L 600 642 L 601 642 L 602 641 L 603 641 L 604 640 L 605 640 L 606 639 L 606 638 L 608 636 L 608 635 L 609 634 L 609 624 L 608 623 L 608 622 L 607 621 L 607 620 L 605 618 L 604 618 L 603 617 L 602 617 L 601 616 L 600 616 L 599 615 L 587 615 L 586 616 L 584 616 Z M 587 621 L 588 621 L 589 620 L 591 620 L 592 619 L 595 619 L 596 620 L 598 620 L 602 624 L 602 626 L 603 627 L 603 630 L 602 631 L 602 633 L 600 635 L 600 636 L 599 637 L 598 637 L 597 638 L 589 638 L 588 637 L 587 637 L 585 635 L 585 634 L 584 633 L 584 625 L 585 624 L 585 623 Z M 411 615 L 411 636 L 412 637 L 412 638 L 413 639 L 413 640 L 414 641 L 415 641 L 416 642 L 417 642 L 418 643 L 427 643 L 428 642 L 429 642 L 432 639 L 433 640 L 433 642 L 434 643 L 440 643 L 440 615 L 433 615 L 433 634 L 430 637 L 429 637 L 428 638 L 421 638 L 418 635 L 418 615 Z M 372 621 L 372 622 L 371 623 L 371 624 L 370 625 L 370 632 L 371 633 L 371 635 L 372 636 L 372 637 L 376 641 L 377 641 L 378 642 L 379 642 L 380 643 L 392 643 L 393 642 L 394 642 L 395 641 L 396 641 L 397 640 L 398 640 L 400 638 L 400 637 L 401 636 L 401 635 L 402 634 L 402 631 L 403 630 L 403 627 L 402 626 L 402 623 L 401 622 L 401 621 L 398 618 L 397 618 L 395 616 L 394 616 L 393 615 L 380 615 L 379 616 L 377 616 Z M 384 619 L 388 619 L 389 620 L 391 620 L 395 624 L 395 625 L 396 626 L 396 632 L 395 633 L 395 634 L 392 637 L 391 637 L 390 638 L 382 638 L 381 637 L 380 637 L 378 635 L 378 634 L 377 633 L 377 625 L 378 624 L 378 623 L 380 621 L 381 621 L 382 620 L 383 620 Z M 1078 616 L 1075 619 L 1074 619 L 1073 620 L 1073 621 L 1072 622 L 1072 623 L 1071 624 L 1071 626 L 1070 627 L 1070 630 L 1071 631 L 1071 634 L 1072 635 L 1072 636 L 1074 638 L 1074 639 L 1075 640 L 1076 640 L 1078 642 L 1079 642 L 1080 643 L 1093 643 L 1094 642 L 1095 642 L 1097 640 L 1098 640 L 1098 639 L 1099 638 L 1099 636 L 1098 636 L 1097 635 L 1094 635 L 1092 637 L 1091 637 L 1090 638 L 1083 638 L 1082 637 L 1081 637 L 1078 634 L 1078 633 L 1077 632 L 1077 626 L 1078 625 L 1078 624 L 1082 620 L 1084 620 L 1085 619 L 1089 619 L 1090 620 L 1091 620 L 1093 622 L 1097 622 L 1098 621 L 1099 621 L 1099 619 L 1096 616 L 1095 616 L 1094 615 L 1090 615 L 1089 614 L 1084 614 L 1083 615 L 1080 615 L 1079 616 Z M 976 616 L 971 621 L 971 622 L 970 623 L 970 624 L 969 625 L 969 633 L 970 634 L 970 635 L 971 636 L 971 637 L 975 641 L 976 641 L 977 642 L 979 642 L 980 643 L 991 643 L 992 642 L 994 642 L 995 641 L 996 641 L 997 640 L 998 640 L 998 638 L 997 637 L 993 637 L 992 638 L 990 638 L 989 639 L 984 639 L 983 638 L 981 638 L 980 637 L 979 637 L 976 634 L 976 633 L 975 632 L 977 630 L 1001 630 L 1001 627 L 1000 626 L 1000 623 L 999 622 L 999 621 L 995 617 L 994 617 L 993 616 L 992 616 L 991 615 L 989 615 L 988 614 L 983 614 L 982 615 L 979 615 L 978 616 Z M 976 624 L 978 622 L 978 621 L 979 620 L 980 620 L 981 619 L 989 619 L 993 623 L 993 624 L 994 625 L 994 626 L 993 627 L 977 627 L 976 626 Z M 707 618 L 704 621 L 704 622 L 703 623 L 703 626 L 702 627 L 702 632 L 703 633 L 703 635 L 705 637 L 705 638 L 708 641 L 709 641 L 710 642 L 712 642 L 713 643 L 725 643 L 726 642 L 728 642 L 729 641 L 730 641 L 731 640 L 731 638 L 729 636 L 727 636 L 726 637 L 725 637 L 724 638 L 723 638 L 722 639 L 716 639 L 715 638 L 713 638 L 710 635 L 710 634 L 709 633 L 709 631 L 710 630 L 734 630 L 734 628 L 733 627 L 733 623 L 732 622 L 732 621 L 727 616 L 725 616 L 724 615 L 721 615 L 720 614 L 716 614 L 715 615 L 712 615 L 711 616 L 710 616 L 708 618 Z M 709 625 L 710 624 L 710 623 L 714 619 L 721 619 L 722 620 L 723 620 L 727 624 L 727 626 L 726 627 L 710 627 L 709 626 Z M 644 615 L 644 643 L 651 643 L 651 625 L 653 623 L 653 622 L 654 621 L 655 621 L 658 619 L 660 619 L 661 620 L 662 620 L 665 623 L 665 624 L 666 625 L 666 643 L 673 643 L 673 624 L 677 620 L 678 620 L 679 619 L 681 619 L 682 620 L 684 620 L 687 623 L 687 630 L 688 631 L 688 639 L 687 640 L 687 642 L 688 643 L 694 643 L 694 622 L 693 621 L 692 618 L 690 616 L 689 616 L 686 614 L 681 614 L 680 615 L 678 615 L 677 616 L 675 616 L 672 619 L 671 619 L 667 615 L 665 615 L 664 614 L 661 614 L 660 615 L 657 615 L 656 616 L 655 616 L 652 619 L 651 618 L 651 615 Z M 542 618 L 541 618 L 538 615 L 536 615 L 535 614 L 531 614 L 530 615 L 527 615 L 526 616 L 525 616 L 524 617 L 523 617 L 522 618 L 521 617 L 521 615 L 514 615 L 514 643 L 521 643 L 521 626 L 522 625 L 522 623 L 524 621 L 525 621 L 526 620 L 527 620 L 528 619 L 531 619 L 532 620 L 534 620 L 536 622 L 536 623 L 537 624 L 537 643 L 544 643 L 544 622 L 543 621 L 543 620 L 542 619 Z M 469 614 L 466 614 L 465 615 L 463 615 L 462 616 L 461 616 L 460 617 L 459 617 L 459 618 L 457 620 L 456 619 L 456 615 L 450 615 L 450 643 L 457 643 L 457 625 L 461 621 L 462 621 L 463 620 L 469 620 Z M 496 607 L 496 640 L 497 641 L 497 643 L 504 643 L 504 607 Z M 332 607 L 332 609 L 334 611 L 334 612 L 336 614 L 336 615 L 338 617 L 338 618 L 341 621 L 341 622 L 344 625 L 344 626 L 345 627 L 345 628 L 347 630 L 347 643 L 354 643 L 354 628 L 358 624 L 358 623 L 360 621 L 360 620 L 362 618 L 362 617 L 364 615 L 364 614 L 366 612 L 366 611 L 368 609 L 368 607 L 361 607 L 361 608 L 359 610 L 359 611 L 357 613 L 357 614 L 354 617 L 354 618 L 352 620 L 352 621 L 350 623 L 347 620 L 347 619 L 346 618 L 346 617 L 344 615 L 344 614 L 341 611 L 341 610 L 339 608 L 339 607 Z M 936 607 L 934 609 L 933 609 L 931 611 L 931 612 L 930 613 L 930 620 L 934 624 L 935 624 L 936 625 L 938 625 L 939 626 L 943 626 L 944 627 L 947 627 L 948 628 L 950 628 L 951 629 L 952 629 L 955 632 L 955 635 L 953 637 L 952 637 L 951 638 L 940 638 L 939 637 L 937 637 L 934 635 L 930 635 L 930 636 L 929 637 L 929 639 L 930 639 L 932 641 L 934 641 L 935 642 L 937 642 L 938 643 L 953 643 L 954 642 L 955 642 L 956 641 L 959 640 L 959 639 L 961 637 L 961 635 L 962 634 L 962 630 L 961 629 L 961 628 L 957 624 L 956 624 L 955 623 L 953 623 L 952 622 L 948 622 L 947 621 L 942 621 L 941 620 L 938 619 L 937 618 L 937 614 L 939 612 L 940 612 L 941 611 L 950 611 L 951 612 L 952 612 L 955 614 L 958 614 L 960 612 L 960 610 L 959 609 L 958 609 L 955 607 L 951 607 L 950 606 L 940 606 L 939 607 Z M 809 609 L 806 612 L 805 612 L 804 613 L 804 614 L 802 616 L 802 617 L 801 618 L 801 620 L 800 621 L 800 628 L 801 629 L 801 632 L 803 634 L 803 635 L 808 640 L 809 640 L 812 642 L 814 642 L 815 643 L 828 643 L 829 642 L 831 642 L 832 641 L 833 641 L 834 640 L 835 640 L 837 638 L 837 635 L 831 635 L 829 637 L 827 637 L 826 638 L 817 638 L 816 637 L 814 637 L 809 632 L 809 631 L 807 628 L 807 622 L 808 621 L 808 619 L 809 618 L 809 617 L 811 615 L 812 615 L 814 613 L 815 613 L 816 612 L 818 612 L 819 611 L 825 611 L 826 612 L 828 612 L 829 613 L 830 613 L 831 614 L 832 614 L 834 616 L 837 616 L 838 615 L 838 612 L 836 610 L 835 610 L 833 608 L 831 608 L 830 607 L 826 607 L 825 606 L 819 606 L 818 607 L 814 607 L 813 608 L 811 608 L 810 609 Z M 1108 604 L 1108 643 L 1115 643 L 1115 625 L 1116 624 L 1116 623 L 1119 620 L 1121 620 L 1122 619 L 1125 619 L 1126 620 L 1128 620 L 1130 622 L 1130 623 L 1131 624 L 1131 643 L 1138 643 L 1138 624 L 1137 623 L 1137 621 L 1136 620 L 1136 619 L 1132 615 L 1129 615 L 1128 614 L 1124 614 L 1123 615 L 1121 615 L 1120 616 L 1119 616 L 1117 618 L 1116 618 L 1115 617 L 1115 604 Z M 773 604 L 766 604 L 766 617 L 765 618 L 763 616 L 761 616 L 760 615 L 758 615 L 757 614 L 754 614 L 753 615 L 750 615 L 749 616 L 747 616 L 742 621 L 742 623 L 741 624 L 741 627 L 740 628 L 740 631 L 741 632 L 741 634 L 742 635 L 742 636 L 743 637 L 743 638 L 746 641 L 747 641 L 748 642 L 749 642 L 750 643 L 760 643 L 761 642 L 762 642 L 763 641 L 764 641 L 766 639 L 767 640 L 767 642 L 768 643 L 773 643 Z M 752 620 L 754 620 L 755 619 L 759 619 L 760 620 L 762 620 L 765 623 L 765 624 L 766 625 L 766 633 L 765 634 L 765 635 L 763 637 L 762 637 L 761 638 L 753 638 L 752 637 L 751 637 L 749 635 L 749 634 L 748 633 L 748 631 L 747 630 L 747 627 L 748 626 L 748 624 Z M 573 604 L 565 604 L 564 605 L 561 605 L 557 609 L 557 611 L 556 612 L 556 615 L 555 616 L 554 615 L 551 615 L 551 620 L 555 620 L 556 621 L 556 643 L 563 643 L 563 621 L 564 620 L 573 620 L 573 616 L 574 615 L 576 615 L 576 613 L 574 613 L 574 615 L 573 616 L 571 616 L 570 615 L 568 615 L 567 616 L 565 616 L 563 614 L 563 612 L 566 609 L 574 609 L 575 608 L 575 605 L 574 605 Z M 300 437 L 298 463 L 323 459 L 473 479 L 382 487 L 418 478 L 341 468 L 302 574 L 367 574 L 387 516 L 516 517 L 517 508 L 436 496 L 434 493 L 516 497 L 529 478 L 539 474 L 553 474 L 566 479 L 577 491 L 581 504 L 579 518 L 613 516 L 612 485 L 599 468 L 565 455 L 515 450 L 480 426 L 453 414 L 426 411 L 399 413 L 323 436 Z M 577 475 L 578 474 L 581 474 L 582 475 L 586 475 L 587 476 L 591 476 L 592 477 L 595 477 L 596 478 L 597 478 L 598 479 L 599 479 L 600 480 L 601 480 L 602 481 L 603 481 L 606 484 L 606 486 L 605 487 L 600 487 L 599 486 L 596 486 L 595 485 L 594 485 L 593 484 L 592 484 L 591 483 L 589 483 L 587 481 L 586 481 L 585 480 L 584 480 L 582 478 L 581 478 L 580 477 L 579 477 Z M 419 423 L 420 422 L 431 422 L 432 423 L 440 423 L 441 424 L 446 424 L 447 425 L 450 425 L 451 426 L 454 426 L 455 427 L 458 427 L 459 428 L 461 428 L 464 430 L 466 430 L 467 431 L 469 431 L 470 432 L 471 432 L 472 433 L 473 433 L 475 435 L 476 435 L 479 437 L 481 437 L 483 439 L 484 439 L 486 441 L 487 441 L 488 442 L 489 442 L 490 443 L 491 443 L 493 445 L 494 445 L 497 448 L 499 448 L 502 450 L 501 451 L 492 451 L 491 450 L 467 450 L 466 449 L 446 449 L 445 448 L 430 448 L 428 446 L 428 444 L 427 443 L 427 442 L 426 441 L 426 440 L 425 439 L 425 438 L 423 435 L 423 433 L 422 432 L 422 430 L 421 429 L 421 428 L 419 425 Z M 417 446 L 416 447 L 403 447 L 402 446 L 400 446 L 399 447 L 398 446 L 379 446 L 378 445 L 360 445 L 359 444 L 341 444 L 340 443 L 341 442 L 345 442 L 347 440 L 348 440 L 349 439 L 350 439 L 351 438 L 353 438 L 354 437 L 355 437 L 356 436 L 357 436 L 358 435 L 359 435 L 360 434 L 361 434 L 362 433 L 364 433 L 365 432 L 366 432 L 367 431 L 368 431 L 369 430 L 371 430 L 372 429 L 373 429 L 374 428 L 375 428 L 376 427 L 379 427 L 380 426 L 382 426 L 383 425 L 385 425 L 386 424 L 390 424 L 391 423 L 400 423 L 401 422 L 408 422 L 409 423 L 409 424 L 410 425 L 410 427 L 411 428 L 411 430 L 412 431 L 412 434 L 413 435 L 413 437 L 414 438 L 414 439 L 415 440 L 415 442 L 416 443 L 416 445 Z M 905 282 L 905 306 L 941 306 L 942 307 L 942 407 L 972 407 L 972 336 L 971 335 L 972 307 L 973 306 L 1010 306 L 1010 289 L 1009 288 L 1010 285 L 1009 282 Z M 780 282 L 780 367 L 782 377 L 792 393 L 807 404 L 821 408 L 831 409 L 856 407 L 865 404 L 875 398 L 886 386 L 892 367 L 892 282 L 861 283 L 861 365 L 858 374 L 852 380 L 842 384 L 832 384 L 822 381 L 817 377 L 812 367 L 811 282 Z M 689 282 L 657 362 L 646 386 L 642 399 L 639 404 L 639 407 L 668 407 L 673 396 L 677 382 L 679 379 L 732 379 L 743 407 L 775 407 L 772 398 L 766 387 L 766 385 L 762 378 L 752 353 L 748 346 L 745 337 L 731 308 L 731 306 L 721 284 L 719 282 Z M 705 312 L 706 313 L 706 314 L 707 315 L 707 317 L 708 318 L 708 319 L 709 320 L 709 322 L 710 323 L 710 325 L 711 326 L 711 328 L 712 329 L 712 330 L 713 331 L 713 332 L 714 333 L 714 335 L 715 336 L 715 338 L 716 339 L 716 340 L 717 341 L 717 343 L 718 344 L 718 345 L 719 346 L 719 348 L 720 349 L 720 350 L 721 351 L 721 353 L 722 354 L 722 355 L 723 356 L 722 357 L 721 357 L 720 358 L 690 358 L 688 356 L 689 355 L 689 353 L 690 352 L 690 350 L 691 349 L 691 347 L 692 346 L 692 344 L 693 343 L 693 341 L 694 340 L 694 339 L 695 338 L 695 336 L 696 335 L 696 333 L 697 332 L 697 330 L 698 329 L 698 328 L 699 327 L 699 325 L 700 324 L 700 322 L 701 321 L 701 320 L 702 319 L 702 318 L 703 317 L 703 315 L 704 314 L 704 313 Z M 1046 288 L 1037 294 L 1027 304 L 1021 313 L 1015 327 L 1014 337 L 1013 338 L 1013 353 L 1014 354 L 1015 363 L 1022 380 L 1036 395 L 1043 400 L 1054 405 L 1060 406 L 1061 407 L 1065 407 L 1066 408 L 1076 408 L 1077 409 L 1098 408 L 1099 407 L 1102 407 L 1103 406 L 1112 404 L 1122 399 L 1132 391 L 1140 382 L 1146 370 L 1148 361 L 1149 360 L 1149 355 L 1150 354 L 1150 336 L 1149 335 L 1149 330 L 1147 326 L 1147 323 L 1139 308 L 1135 303 L 1123 292 L 1112 286 L 1100 282 L 1095 282 L 1094 281 L 1067 281 L 1066 282 L 1058 283 Z M 1069 306 L 1074 306 L 1075 305 L 1087 305 L 1088 306 L 1092 306 L 1093 307 L 1096 307 L 1097 308 L 1102 310 L 1113 321 L 1113 322 L 1117 329 L 1117 331 L 1118 332 L 1118 335 L 1119 336 L 1119 354 L 1118 355 L 1118 358 L 1117 359 L 1117 361 L 1116 362 L 1114 367 L 1110 371 L 1110 372 L 1107 375 L 1106 375 L 1103 378 L 1102 378 L 1100 380 L 1099 380 L 1098 381 L 1096 381 L 1095 382 L 1092 382 L 1091 383 L 1086 383 L 1085 384 L 1079 384 L 1078 383 L 1073 383 L 1072 382 L 1068 382 L 1067 381 L 1066 381 L 1065 380 L 1060 378 L 1051 369 L 1051 368 L 1050 367 L 1050 366 L 1048 364 L 1048 362 L 1046 359 L 1046 356 L 1045 355 L 1045 350 L 1044 349 L 1044 342 L 1045 341 L 1045 334 L 1046 333 L 1046 330 L 1047 329 L 1047 327 L 1048 326 L 1049 323 L 1051 321 L 1051 320 L 1061 310 L 1062 310 Z M 481 276 L 424 276 L 421 285 L 419 288 L 419 290 L 417 293 L 416 298 L 414 301 L 413 306 L 405 324 L 404 329 L 400 337 L 399 342 L 395 350 L 394 355 L 390 363 L 386 376 L 383 381 L 382 386 L 376 399 L 373 410 L 378 410 L 379 409 L 384 409 L 389 407 L 408 405 L 409 404 L 417 404 L 418 403 L 434 403 L 435 402 L 449 360 L 452 355 L 458 337 L 460 334 L 465 319 L 467 316 L 467 314 L 475 296 L 476 291 L 480 283 Z " fill="#F5F5F5"/>
    <path d="M 613 570 L 610 565 L 610 563 L 607 558 L 607 556 L 606 555 L 606 554 L 603 549 L 603 547 L 600 542 L 600 540 L 598 537 L 598 535 L 597 534 L 597 532 L 594 527 L 594 525 L 576 525 L 572 528 L 571 528 L 571 529 L 564 536 L 563 536 L 562 537 L 560 537 L 558 539 L 554 539 L 553 540 L 547 540 L 546 539 L 540 539 L 539 538 L 538 538 L 537 537 L 537 536 L 534 536 L 533 535 L 530 534 L 527 531 L 527 530 L 526 530 L 524 528 L 521 528 L 521 531 L 523 534 L 523 536 L 525 539 L 525 541 L 527 544 L 527 546 L 529 549 L 529 551 L 531 554 L 531 556 L 533 559 L 533 561 L 534 562 L 534 563 L 535 564 L 535 566 L 537 569 L 537 573 L 538 574 L 551 574 L 552 575 L 554 575 L 555 574 L 612 574 L 613 573 Z M 543 483 L 542 484 L 540 484 L 539 485 L 537 485 L 536 486 L 535 486 L 533 488 L 532 488 L 530 490 L 530 491 L 527 494 L 527 496 L 526 497 L 526 499 L 525 500 L 525 511 L 526 512 L 526 514 L 527 515 L 527 516 L 528 517 L 528 518 L 529 519 L 529 520 L 535 526 L 536 526 L 537 527 L 539 527 L 540 528 L 541 528 L 542 529 L 555 529 L 556 528 L 557 528 L 558 527 L 559 527 L 560 526 L 561 526 L 563 524 L 564 524 L 567 521 L 567 520 L 568 519 L 568 518 L 569 517 L 569 516 L 570 515 L 570 514 L 571 513 L 571 510 L 572 509 L 572 503 L 571 502 L 571 499 L 570 498 L 570 497 L 569 496 L 569 495 L 568 494 L 568 493 L 562 487 L 561 487 L 559 485 L 557 485 L 556 484 L 553 484 L 552 483 Z M 1114 440 L 1114 465 L 1149 465 L 1151 467 L 1151 568 L 1183 568 L 1183 466 L 1184 465 L 1222 465 L 1222 440 Z M 1000 440 L 1000 568 L 1029 568 L 1030 567 L 1030 530 L 1033 528 L 1049 528 L 1080 568 L 1114 568 L 1113 564 L 1083 526 L 1084 523 L 1092 519 L 1099 513 L 1107 498 L 1108 477 L 1105 467 L 1101 460 L 1090 450 L 1076 444 L 1068 443 L 1067 441 L 1057 442 L 1056 440 Z M 1030 466 L 1031 465 L 1059 465 L 1060 466 L 1063 466 L 1064 467 L 1065 467 L 1066 468 L 1067 468 L 1069 470 L 1070 470 L 1072 472 L 1072 473 L 1074 475 L 1074 477 L 1075 478 L 1075 481 L 1076 482 L 1076 490 L 1075 491 L 1075 493 L 1074 494 L 1074 496 L 1068 502 L 1067 502 L 1065 504 L 1062 504 L 1061 505 L 1051 505 L 1050 506 L 1032 506 L 1030 504 Z M 887 440 L 887 568 L 986 568 L 986 539 L 918 538 L 918 515 L 920 513 L 974 513 L 975 490 L 919 490 L 918 466 L 981 465 L 981 440 Z M 784 440 L 784 568 L 878 568 L 878 541 L 877 539 L 817 539 L 816 538 L 816 440 Z M 688 440 L 687 447 L 676 472 L 671 487 L 662 506 L 660 513 L 653 527 L 645 549 L 641 556 L 637 568 L 668 568 L 675 547 L 679 540 L 732 540 L 736 546 L 744 568 L 778 568 L 776 560 L 746 496 L 734 466 L 726 450 L 723 440 Z M 706 472 L 707 473 L 707 475 L 708 476 L 708 479 L 709 480 L 709 481 L 710 482 L 710 484 L 711 485 L 711 487 L 712 488 L 712 489 L 713 490 L 713 492 L 714 493 L 714 494 L 715 495 L 715 497 L 716 498 L 716 500 L 717 501 L 717 503 L 718 504 L 718 505 L 719 506 L 719 507 L 720 508 L 720 510 L 721 511 L 721 513 L 722 514 L 722 517 L 723 518 L 722 519 L 689 519 L 688 518 L 688 516 L 689 515 L 689 513 L 690 512 L 690 510 L 691 509 L 691 507 L 692 506 L 692 505 L 693 504 L 693 502 L 694 501 L 694 500 L 695 499 L 695 496 L 696 495 L 696 494 L 697 493 L 697 491 L 698 490 L 698 489 L 699 488 L 699 486 L 700 485 L 700 483 L 701 482 L 701 481 L 702 480 L 702 478 L 703 477 L 704 477 L 704 475 L 705 474 L 705 473 Z M 484 279 L 480 287 L 476 300 L 473 305 L 472 310 L 470 313 L 470 315 L 468 318 L 468 320 L 466 323 L 466 325 L 464 328 L 463 333 L 460 338 L 459 343 L 457 346 L 454 355 L 455 362 L 458 367 L 461 377 L 466 387 L 466 389 L 474 407 L 477 417 L 479 420 L 485 423 L 493 425 L 507 432 L 514 440 L 517 439 L 518 440 L 527 440 L 528 441 L 533 441 L 534 442 L 539 442 L 540 443 L 554 444 L 554 441 L 549 432 L 549 430 L 544 420 L 540 408 L 537 403 L 535 396 L 527 379 L 526 374 L 522 367 L 518 354 L 515 349 L 515 347 L 508 332 L 508 330 L 506 327 L 502 315 L 499 310 L 499 308 L 495 301 L 494 296 L 489 286 L 487 279 Z " fill="#F97316"/>
  </g>
</svg>